# CAD Exchanger 3.5.2 (cadexchanger.com)
# Object Count: 1
mtllib 90.градусов v2.mtl
g 90.\X2\043304400430043404430441043E0432\X0\ v2
v -158.561744 5.000000 90.176968
v -50.000000 5.000000 -18.384776
v -50.000000 0.000000 -18.384776
v -158.561744 0.000000 90.176968
v 58.561744 0.000000 90.176968
v 58.561744 5.000000 90.176968
v -147.806231 5.000000 100.932481
v -147.806231 0.000000 100.932481
v 47.806231 0.000000 100.932481
v 47.806231 5.000000 100.932481
v -50.000000 0.000000 3.126251
v -50.000000 5.000000 3.126251
vn -0.707107 0.000000 -0.707107
vn -0.707107 0.000000 -0.707107
vn -0.707107 0.000000 -0.707107
vn -0.707107 0.000000 -0.707107
vn 0.707107 0.000000 -0.707107
vn 0.707107 0.000000 -0.707107
vn 0.707107 0.000000 -0.707107
vn 0.707107 0.000000 -0.707107
vn -0.707107 0.000000 0.707107
vn -0.707107 0.000000 0.707107
vn -0.707107 0.000000 0.707107
vn -0.707107 0.000000 0.707107
vn 0.707107 0.000000 0.707107
vn 0.707107 0.000000 0.707107
vn 0.707107 0.000000 0.707107
vn 0.707107 0.000000 0.707107
vn 0.707107 0.000000 0.707107
vn 0.707107 0.000000 0.707107
vn 0.707107 0.000000 0.707107
vn 0.707107 0.000000 0.707107
vn -0.000000 -1.000000 -0.000000
vn -0.000000 -1.000000 -0.000000
vn -0.000000 -1.000000 -0.000000
vn -0.000000 -1.000000 -0.000000
vn -0.000000 -1.000000 -0.000000
vn -0.000000 -1.000000 -0.000000
vn -0.707107 0.000000 0.707107
vn -0.707107 0.000000 0.707107
vn -0.707107 0.000000 0.707107
vn -0.707107 0.000000 0.707107
vn 0.000000 1.000000 0.000000
vn 0.000000 1.000000 0.000000
vn 0.000000 1.000000 0.000000
vn 0.000000 1.000000 0.000000
vn 0.000000 1.000000 0.000000
vn 0.000000 1.000000 0.000000
usemtl Material_1
f 3//3 4//4 1//1
f 3//3 1//1 2//2
f 2//7 5//5 3//6
f 6//8 5//5 2//7
f 4//11 8//12 7//9
f 4//11 7//9 1//10
f 6//15 9//13 5//14
f 10//16 9//13 6//15
f 12//19 8//17 11//18
f 7//20 8//17 12//19
f 11//25 5//21 9//26
f 11//25 4//23 3//22
f 11//25 3//22 5//21
f 11//25 8//24 4//23
f 11//29 9//30 10//27
f 11//29 10//27 12//28
f 6//34 12//32 10//33
f 12//32 1//36 7//31
f 6//34 2//35 12//32
f 2//35 1//36 12//32
