# CAD Exchanger 3.5.2 (cadexchanger.com)
# Object Count: 1
mtllib Закругленная v1.mtl
g \X2\04170430043A044004430433043B0435043D043D0430044F\X0\ v1
v -74.748737 5.000000 6.363961
v -25.251263 5.000000 6.363961
v -25.251263 0.000000 6.363961
v -74.748737 0.000000 6.363961
v -158.561744 5.000000 90.176968
v -147.806231 5.000000 100.932481
v -75.102291 5.000000 28.228541
v -24.897709 5.000000 28.228541
v 47.806231 5.000000 100.932481
v 58.561744 5.000000 90.176968
v -158.561744 0.000000 90.176968
v -75.102291 0.000000 28.228541
v -24.897709 0.000000 28.228541
v 47.806231 0.000000 100.932481
v 58.561744 0.000000 90.176968
v -147.806231 0.000000 100.932481
v -70.075175 5.000000 2.442377
v -64.791639 5.000000 -0.608074
v -59.058667 5.000000 -2.694706
v -53.050451 5.000000 -3.754116
v -46.949549 5.000000 -3.754116
v -40.941333 5.000000 -2.694706
v -35.208361 5.000000 -0.608074
v -29.924825 5.000000 2.442377
v -29.924825 0.000000 2.442377
v -35.208361 0.000000 -0.608074
v -40.941333 0.000000 -2.694706
v -46.949549 0.000000 -3.754116
v -53.050451 0.000000 -3.754116
v -59.058667 0.000000 -2.694706
v -64.791639 0.000000 -0.608074
v -70.075175 0.000000 2.442377
v -29.638037 5.000000 24.250935
v -34.997052 5.000000 21.156906
v -40.811924 5.000000 19.040465
v -46.905971 5.000000 17.965920
v -53.094029 5.000000 17.965920
v -59.188076 5.000000 19.040465
v -65.002948 5.000000 21.156906
v -70.361963 5.000000 24.250935
v -70.361963 0.000000 24.250935
v -65.002948 0.000000 21.156906
v -59.188076 0.000000 19.040465
v -53.094029 0.000000 17.965920
v -46.905971 0.000000 17.965920
v -40.811924 0.000000 19.040465
v -34.997052 0.000000 21.156906
v -29.638037 0.000000 24.250935
vn -0.707107 0.000000 -0.707107
vn -0.573576 0.000000 -0.819152
vn -0.422618 0.000000 -0.906308
vn -0.258819 0.000000 -0.965926
vn -0.087156 0.000000 -0.996195
vn 0.087156 0.000000 -0.996195
vn 0.258819 0.000000 -0.965926
vn 0.422618 0.000000 -0.906308
vn 0.573576 0.000000 -0.819152
vn 0.707107 0.000000 -0.707107
vn 0.707107 0.000000 -0.707107
vn 0.573576 0.000000 -0.819152
vn 0.422618 0.000000 -0.906308
vn 0.258819 0.000000 -0.965926
vn 0.087156 0.000000 -0.996195
vn -0.087156 0.000000 -0.996195
vn -0.258819 0.000000 -0.965926
vn -0.422618 0.000000 -0.906308
vn -0.573576 0.000000 -0.819152
vn -0.707107 0.000000 -0.707107
vn 0.000000 1.000000 0.000000
vn 0.000000 1.000000 0.000000
vn 0.000000 1.000000 0.000000
vn 0.000000 1.000000 0.000000
vn 0.000000 1.000000 0.000000
vn 0.000000 1.000000 0.000000
vn 0.000000 1.000000 0.000000
vn 0.000000 1.000000 0.000000
vn 0.000000 1.000000 0.000000
vn 0.000000 1.000000 0.000000
vn 0.000000 1.000000 0.000000
vn 0.000000 1.000000 0.000000
vn 0.000000 1.000000 0.000000
vn 0.000000 1.000000 0.000000
vn 0.000000 1.000000 0.000000
vn 0.000000 1.000000 0.000000
vn 0.000000 1.000000 0.000000
vn 0.000000 1.000000 0.000000
vn 0.000000 1.000000 0.000000
vn 0.000000 1.000000 0.000000
vn 0.000000 1.000000 0.000000
vn 0.000000 1.000000 0.000000
vn 0.000000 1.000000 0.000000
vn 0.000000 1.000000 0.000000
vn -0.707107 0.000000 -0.707107
vn -0.707107 0.000000 -0.707107
vn -0.707107 0.000000 -0.707107
vn -0.707107 0.000000 -0.707107
vn 0.707107 -0.000000 0.707107
vn 0.707107 -0.000000 0.707107
vn 0.573576 -0.000000 0.819152
vn 0.422618 -0.000000 0.906308
vn 0.258819 -0.000000 0.965926
vn 0.087156 -0.000000 0.996195
vn -0.087156 -0.000000 0.996195
vn -0.258819 -0.000000 0.965926
vn -0.422618 -0.000000 0.906308
vn -0.573576 -0.000000 0.819152
vn -0.707107 -0.000000 0.707107
vn -0.707107 -0.000000 0.707107
vn -0.573576 -0.000000 0.819152
vn -0.422618 -0.000000 0.906308
vn -0.258819 -0.000000 0.965926
vn -0.087156 -0.000000 0.996195
vn 0.087156 -0.000000 0.996195
vn 0.258819 -0.000000 0.965926
vn 0.422618 -0.000000 0.906308
vn 0.573576 -0.000000 0.819152
vn -0.707107 0.000000 0.707107
vn -0.707107 0.000000 0.707107
vn -0.707107 0.000000 0.707107
vn -0.707107 0.000000 0.707107
vn 0.707107 0.000000 -0.707107
vn 0.707107 0.000000 -0.707107
vn 0.707107 0.000000 -0.707107
vn 0.707107 0.000000 -0.707107
vn -0.707107 0.000000 0.707107
vn -0.707107 0.000000 0.707107
vn -0.707107 0.000000 0.707107
vn -0.707107 0.000000 0.707107
vn 0.707107 0.000000 0.707107
vn 0.707107 0.000000 0.707107
vn 0.707107 0.000000 0.707107
vn 0.707107 0.000000 0.707107
vn 0.707107 0.000000 0.707107
vn 0.707107 0.000000 0.707107
vn 0.707107 0.000000 0.707107
vn 0.707107 0.000000 0.707107
vn -0.000000 -1.000000 -0.000000
vn -0.000000 -1.000000 -0.000000
vn -0.000000 -1.000000 -0.000000
vn -0.000000 -1.000000 -0.000000
vn -0.000000 -1.000000 -0.000000
vn -0.000000 -1.000000 -0.000000
vn -0.000000 -1.000000 -0.000000
vn -0.000000 -1.000000 -0.000000
vn -0.000000 -1.000000 -0.000000
vn -0.000000 -1.000000 -0.000000
vn -0.000000 -1.000000 -0.000000
vn -0.000000 -1.000000 -0.000000
vn -0.000000 -1.000000 -0.000000
vn -0.000000 -1.000000 -0.000000
vn -0.000000 -1.000000 -0.000000
vn -0.000000 -1.000000 -0.000000
vn -0.000000 -1.000000 -0.000000
vn -0.000000 -1.000000 -0.000000
vn -0.000000 -1.000000 -0.000000
vn -0.000000 -1.000000 -0.000000
vn -0.000000 -1.000000 -0.000000
vn -0.000000 -1.000000 -0.000000
vn -0.000000 -1.000000 -0.000000
vn -0.000000 -1.000000 -0.000000
usemtl Material_1
f 17//2 32//19 1//1
f 18//3 31//18 17//2
f 19//4 30//17 18//3
f 20//5 29//16 19//4
f 21//6 28//15 20//5
f 22//7 27//14 21//6
f 23//8 26//13 22//7
f 24//9 25//12 23//8
f 2//10 3//11 24//9
f 25//12 24//9 3//11
f 26//13 23//8 25//12
f 27//14 22//7 26//13
f 28//15 21//6 27//14
f 29//16 20//5 28//15
f 30//17 19//4 29//16
f 31//18 18//3 30//17
f 32//19 17//2 31//18
f 4//20 1//1 32//19
f 38//36 17//29 39//35
f 34//40 2//21 24//22
f 36//38 22//24 21//25
f 37//37 21//25 20//26
f 37//37 20//26 19//27
f 38//36 19//27 18//28
f 38//36 18//28 17//29
f 7//33 1//30 5//31
f 39//35 17//29 1//30
f 7//33 5//31 6//32
f 35//39 23//23 22//24
f 40//34 1//30 7//33
f 35//39 24//22 23//23
f 39//35 1//30 40//34
f 37//37 19//27 38//36
f 36//38 35//39 22//24
f 36//38 21//25 37//37
f 34//40 24//22 35//39
f 33//41 2//21 34//40
f 8//42 2//21 33//41
f 10//44 2//21 8//42
f 10//44 8//42 9//43
f 11//47 1//45 4//46
f 5//48 1//45 11//47
f 40//51 7//50 12//49
f 41//68 40//51 12//49
f 42//67 39//52 40//51
f 43//66 38//53 39//52
f 44//65 37//54 38//53
f 45//64 36//55 37//54
f 46//63 35//56 36//55
f 47//62 34//57 35//56
f 48//61 33//58 34//57
f 13//60 8//59 33//58
f 48//61 13//60 33//58
f 47//62 48//61 34//57
f 46//63 47//62 35//56
f 45//64 46//63 36//55
f 44//65 45//64 37//54
f 43//66 44//65 38//53
f 42//67 43//66 39//52
f 41//68 42//67 40//51
f 14//71 8//69 13//70
f 9//72 8//69 14//71
f 10//75 3//73 2//74
f 15//76 3//73 10//75
f 11//79 16//80 6//77
f 11//79 6//77 5//78
f 10//83 14//81 15//82
f 9//84 14//81 10//83
f 6//87 12//85 7//86
f 16//88 12//85 6//87
f 12//92 11//90 4//89
f 12//92 16//91 11//90
f 41//93 12//92 4//89
f 42//94 41//93 4//89
f 32//112 42//94 4//89
f 32//112 43//95 42//94
f 30//110 44//96 43//95
f 28//108 45//97 44//96
f 27//107 46//98 45//97
f 25//105 47//99 46//98
f 3//104 48//100 47//99
f 15//103 14//102 13//101
f 3//104 13//101 48//100
f 3//104 15//103 13//101
f 25//105 3//104 47//99
f 26//106 25//105 46//98
f 27//107 26//106 46//98
f 28//108 27//107 45//97
f 29//109 28//108 44//96
f 30//110 29//109 44//96
f 31//111 30//110 43//95
f 32//112 31//111 43//95
