# Blender v2.79 (sub 0) OBJ File: ''
# www.blender.org
mtllib дом.mtl
o Дом
v -0.700000 2.200000 -1.600000
v 0.500000 1.000000 -2.800000
v -0.700000 -0.200000 -1.600000
v 1.700000 -0.200000 -1.600000
v 1.700000 2.200000 -1.600000
v -0.700000 2.200000 -1.500000
v -0.500000 2.000000 -1.500000
v 1.700000 2.200000 -1.500000
v 1.500000 2.000000 -1.500000
v 1.500000 0.000000 -1.500000
v -0.500000 0.000000 -1.500000
v -0.700000 -0.200000 -1.500000
v 1.700000 -0.200000 -1.500000
v -0.500000 2.000000 0.000000
v -0.500000 0.000000 0.000000
v 1.500000 2.000000 0.000000
v 1.500000 0.000000 0.000000
vn -0.7071 0.0000 -0.7071
vn 0.0000 -0.7071 -0.7071
vn 0.7071 0.0000 -0.7071
vn 0.0000 0.7071 -0.7071
vn 0.0000 0.0000 1.0000
vn -1.0000 0.0000 0.0000
vn 0.0000 -1.0000 0.0000
vn 1.0000 0.0000 0.0000
vn 0.0000 1.0000 0.0000
usemtl None
s off
f 1//1 2//1 3//1
f 3//2 2//2 4//2
f 4//3 2//3 5//3
f 5//4 2//4 1//4
f 6//5 7//5 8//5
f 8//5 7//5 9//5
f 8//5 9//5 10//5
f 7//5 6//5 11//5
f 11//5 6//5 12//5
f 11//5 12//5 13//5
f 11//5 13//5 10//5
f 10//5 13//5 8//5
f 12//6 6//6 3//6
f 3//6 6//6 1//6
f 13//7 12//7 4//7
f 4//7 12//7 3//7
f 8//8 13//8 5//8
f 5//8 13//8 4//8
f 6//9 8//9 1//9
f 1//9 8//9 5//9
f 14//5 15//5 16//5
f 16//5 15//5 17//5
f 11//6 15//6 7//6
f 7//6 15//6 14//6
f 10//7 17//7 11//7
f 11//7 17//7 15//7
f 9//8 16//8 10//8
f 10//8 16//8 17//8
f 7//9 14//9 9//9
f 9//9 14//9 16//9
