# Blender v2.79 (sub 0) OBJ File: ''
# www.blender.org
mtllib лестница.mtl
o Лестница
v 0.500000 -2.000000 -1.000000
v 0.500000 -0.000000 -1.000000
v 0.500000 -2.000000 -0.680000
v 0.500000 -0.000000 -0.680000
v 1.000000 -2.000000 -0.680000
v 1.000000 0.000000 -0.680000
v 0.000000 -2.000000 -1.000000
v 0.000000 -2.000000 0.000000
v 1.000000 -2.000000 -0.340000
v 1.500000 -2.000000 0.000000
v 1.500000 -2.000000 -0.340000
v 1.000000 0.000000 -0.340000
v 1.500000 -0.000000 -0.340000
v 0.000000 -0.000000 -1.000000
v 0.000000 -0.000000 0.000000
v 1.500000 -0.000000 0.000000
vn 1.0000 0.0000 0.0000
vn 0.0000 0.0000 -1.0000
vn 0.0000 -1.0000 0.0000
vn -0.0000 1.0000 0.0000
vn 0.0000 0.0000 1.0000
vn -1.0000 0.0000 0.0000
usemtl None
s off
f 1//1 2//1 3//1
f 3//1 2//1 4//1
f 3//2 4//2 5//2
f 5//2 4//2 6//2
f 1//3 3//3 7//3
f 7//3 3//3 8//3
f 8//3 3//3 9//3
f 8//3 9//3 10//3
f 10//3 9//3 11//3
f 3//3 5//3 9//3
f 5//1 6//1 9//1
f 9//1 6//1 12//1
f 9//2 12//2 11//2
f 11//2 12//2 13//2
f 2//2 1//2 14//2
f 14//2 1//2 7//2
f 2//4 14//4 4//4
f 4//4 14//4 15//4
f 4//4 15//4 12//4
f 12//4 15//4 16//4
f 12//4 16//4 13//4
f 12//4 6//4 4//4
f 15//5 8//5 16//5
f 16//5 8//5 10//5
f 7//6 8//6 14//6
f 14//6 8//6 15//6
f 13//1 16//1 11//1
f 11//1 16//1 10//1
