# 3ds Max Wavefront OBJ Exporter v0.97b - (c)2007 guruware
# File Created: 08.03.2019 01:12:27

mtllib ?????_?????????.mtl

#
# object Line001
#

v  -59.8786 0.0000 0.4175
v  -46.0412 0.0000 -4.5046
v  -46.0412 80.5000 -4.5046
v  -59.8786 80.5000 0.4175
v  -31.7910 0.0000 -8.8113
v  -31.7910 80.5000 -8.8113
v  -16.7151 0.0000 -11.8876
v  -16.7151 80.5000 -11.8876
v  -0.4007 0.0000 -13.1181
v  -0.4007 80.5000 -13.1181
v  17.5650 0.0000 -11.8876
v  17.5650 80.5000 -11.8876
v  37.5948 0.0000 -7.5808
v  37.5948 80.5000 -7.5808
v  60.1017 0.0000 0.4175
v  60.1017 80.5000 0.4175
# 16 vertices

vn 0.3351 0.0000 0.9422
vn 0.3123 0.0000 0.9500
vn 0.2449 0.0000 0.9696
vn 0.1378 0.0000 0.9905
vn 0.0034 0.0000 1.0000
vn -0.1396 0.0000 0.9902
vn -0.2731 0.0000 0.9620
vn -0.3349 0.0000 0.9423
# 8 vertex normals

o Line001
g Line001
usemtl wire_087225198
s 1
f 1//1 2//2 3//2 4//1 
s 3
f 2//2 5//3 6//3 3//2 
s 2
f 5//3 7//4 8//4 6//3 
f 7//4 9//5 10//5 8//4 
f 9//5 11//6 12//6 10//5 
f 11//6 13//7 14//7 12//6 
f 13//7 15//8 16//8 14//7 
# 7 polygons

